<svg enable-background="new 0 0 73 73" height="73" viewBox="0 0 73 73" width="73" xmlns="http://www.w3.org/2000/svg" xmlns:xlink="http://www.w3.org/1999/xlink"><linearGradient id="a" gradientUnits="userSpaceOnUse" x1="36" x2="36" y1="0" y2="72"><stop offset="0" stop-color="#d56efc"/><stop offset="1" stop-color="#832bc1"/></linearGradient><path d="m72 22.523c0-.86 0-1.72-.005-2.58-.004-.724-.013-1.449-.032-2.173-.043-1.577-.136-3.169-.416-4.728-.285-1.584-.749-3.058-1.482-4.497-.72-1.414-1.66-2.707-2.781-3.828-1.122-1.122-2.415-2.062-3.829-2.782-1.438-.732-2.912-1.197-4.495-1.481-1.56-.281-3.152-.373-4.73-.416-.724-.02-1.448-.028-2.173-.032-.86-.006-1.72-.006-2.58-.006h-26.954c-.86 0-1.72 0-2.58.005-.724.004-1.449.013-2.173.032-1.578.043-3.17.136-4.73.416-1.583.285-3.056.749-4.495 1.481-1.414.72-2.707 1.66-3.829 2.782-1.121 1.122-2.062 2.415-2.781 3.828-.733 1.439-1.197 2.913-1.482 4.497-.28 1.56-.373 3.151-.416 4.728-.02.724-.028 1.448-.032 2.173-.005.861-.005 1.721-.005 2.581v26.955c0 .86 0 1.72.005 2.58.004.724.013 1.449.032 2.173.043 1.577.136 3.169.416 4.728.285 1.584.749 3.058 1.482 4.497.72 1.414 1.66 2.707 2.781 3.828 1.122 1.122 2.415 2.062 3.829 2.782 1.438.732 2.912 1.197 4.495 1.481 1.56.281 3.152.373 4.73.416.724.02 1.448.028 2.173.032.86.005 1.72.005 2.58.005h26.955c.86 0 1.72 0 2.58-.005.724-.004 1.449-.013 2.173-.032 1.578-.043 3.17-.136 4.73-.416 1.583-.285 3.056-.749 4.495-1.481 1.414-.72 2.707-1.66 3.829-2.782s2.062-2.415 2.781-3.828c.733-1.439 1.197-2.913 1.482-4.497.28-1.56.373-3.151.416-4.728.02-.724.028-1.448.032-2.173.004-.861.004-1.721.004-2.581z" fill="url(#a)"/><path d="m35.977 26.184c2.976 0 5.388 2.411 5.388 5.386s-2.412 5.386-5.388 5.386-5.388-2.411-5.388-5.386c.001-2.975 2.413-5.386 5.388-5.386zm15.509 7.274c0 5.315-2.69 10.014-6.78 12.808-.208.142-.491-.019-.475-.27.057-.945.075-1.782.026-2.643-.016-.283.095-.559.302-.753 2.439-2.289 3.965-5.54 3.965-9.141 0-7.08-5.899-12.809-13.042-12.533-6.572.255-11.873 5.623-12.046 12.196-.098 3.735 1.446 7.118 3.961 9.479.207.194.317.47.302.752-.048.861-.031 1.698.027 2.644.015.251-.267.413-.475.271-4.143-2.829-6.849-7.612-6.78-13.011.105-8.208 6.688-14.972 14.894-15.29 8.828-.342 16.121 6.739 16.121 15.491zm-15.576-23.142c12.796-.036 23.217 10.359 23.217 23.143 0 10.078-6.477 18.67-15.488 21.838-.221.078-.445-.106-.41-.337.119-.792.232-1.587.335-2.37.036-.276.212-.516.467-.627 7.135-3.115 12.134-10.236 12.134-18.504 0-11.183-9.146-20.271-20.354-20.181-10.963.088-19.915 9.023-20.021 19.982-.081 8.351 4.941 15.561 12.132 18.701.256.112.432.35.469.627.103.783.216 1.579.335 2.371.035.232-.189.415-.41.337-9.098-3.199-15.613-11.927-15.487-22.13.156-12.595 10.481-22.814 23.081-22.85zm.067 28.816c2.048 0 3.784.668 4.771 1.71.516.544.788 1.101.874 1.895.166 1.538.073 2.862-.107 4.978-.172 2.017-.497 4.707-.923 7.446-.303 1.95-.549 3.002-.773 3.755-.363 1.221-1.72 2.289-3.842 2.289s-3.479-1.068-3.842-2.289c-.224-.753-.47-1.806-.773-3.755-.425-2.739-.751-5.429-.923-7.446-.18-2.117-.274-3.441-.107-4.978.086-.794.358-1.351.874-1.895.988-1.042 2.723-1.71 4.771-1.71z" fill="#fff"/></svg>