<?xml version="1.0" encoding="UTF-8" standalone="no"?>
<!DOCTYPE svg PUBLIC "-//W3C//DTD SVG 1.1//EN" "http://www.w3.org/Graphics/SVG/1.1/DTD/svg11.dtd">
<svg width="100%" height="100%" viewBox="0 0 24 24" version="1.1" xmlns="http://www.w3.org/2000/svg" xmlns:xlink="http://www.w3.org/1999/xlink" xml:space="preserve" xmlns:serif="http://www.serif.com/" style="fill-rule:evenodd;clip-rule:evenodd;stroke-linejoin:round;stroke-miterlimit:2;">
    <g>
        <path d="M23.508,20.799C23.176,21.589 22.649,22.282 21.977,22.814C21.475,23.213 20.9,23.511 20.285,23.693C19.337,23.928 18.361,24.029 17.385,23.993L6.604,23.993C5.628,24.029 4.651,23.928 3.703,23.693C2.255,23.256 1.076,22.193 0.491,20.799C0.117,19.689 -0.046,18.518 0.009,17.348L0.009,6.631C-0.044,5.467 0.12,4.304 0.492,3.2C1.078,1.806 2.257,0.744 3.704,0.307C4.652,0.072 5.628,-0.029 6.604,0.007L17.395,0.007C18.371,-0.029 19.348,0.072 20.296,0.307C21.744,0.744 22.923,1.807 23.508,3.201C23.879,4.305 24.042,5.468 23.989,6.631L23.989,17.348C24.045,18.518 23.882,19.689 23.508,20.799Z" style="fill:rgb(0,0,0);fill-rule:nonzero;"/>
        <g id="Combined-Shape" transform="matrix(0.209604,0,0,0.209604,-57.1151,-4.76833)">
            <path d="M357.39,74.667C359.462,75.907 362.148,75.218 363.38,73.129C364.612,71.044 363.93,68.346 361.852,67.105C344.507,56.752 317.061,55.779 300.55,60.818C298.239,61.525 296.936,63.979 297.636,66.302C298.336,68.625 300.779,69.936 303.088,69.231C317.471,64.842 342.323,65.669 357.39,74.667ZM356.897,87.993C357.95,86.272 357.411,84.016 355.698,82.955C341.271,74.04 320.167,71.531 303.19,76.711C301.267,77.3 300.18,79.343 300.761,81.281C301.346,83.215 303.381,84.308 305.309,83.722C320.169,79.186 339.323,81.435 351.884,89.199C353.597,90.258 355.84,89.717 356.897,87.993ZM351.177,100.791C352.017,99.41 351.585,97.606 350.211,96.762C337.891,89.192 322.618,87.43 304.813,91.523C303.242,91.883 302.263,93.454 302.622,95.031C302.98,96.607 304.542,97.595 306.11,97.233C322.38,93.496 336.195,95.02 347.172,101.765C348.544,102.61 350.338,102.175 351.177,100.791ZM329.742,33C355.556,33 376.482,54.042 376.482,79.999C376.482,105.959 355.556,127 329.742,127C303.927,127 283,105.959 283,79.999C283,54.042 303.927,33 329.742,33Z" style="fill:rgb(35,205,91);"/>
        </g>
    </g>
</svg>
